<?xml version="1.0" standalone="no"?>
<!DOCTYPE svg PUBLIC "-//W3C//DTD SVG 20010904//EN"
 "http://www.w3.org/TR/2001/REC-SVG-20010904/DTD/svg10.dtd">
<svg version="1.0" xmlns="http://www.w3.org/2000/svg"
 width="300.000000pt" height="77.000000pt" viewBox="0 0 300.000000 77.000000"
 preserveAspectRatio="xMidYMid meet">
<metadata>
Created by potrace 1.10, written by Peter Selinger 2001-2011
</metadata>
<g transform="translate(0.000000,77.000000) scale(0.100000,-0.100000)"
fill="#ffffff" stroke="none">
<path d="M363 751 c-7 -11 -38 -28 -68 -37 -37 -12 -67 -29 -85 -50 -15 -18
-38 -34 -51 -36 -14 -2 -40 -25 -67 -60 -24 -33 -54 -61 -68 -64 -30 -8 -31
-20 -2 -27 26 -7 55 16 100 82 29 40 33 43 68 38 33 -4 36 -3 33 17 -5 27 19
49 72 66 72 23 95 39 95 65 0 30 -11 32 -27 6z"/>
<path d="M400 745 c0 -27 15 -37 98 -66 59 -20 72 -31 72 -64 0 -18 5 -20 34
-17 29 3 36 -1 56 -30 48 -69 82 -98 109 -92 l26 5 -27 -16 c-27 -15 -28 -19
-28 -94 0 -63 -4 -81 -18 -94 -10 -10 -24 -17 -30 -17 -16 0 -15 -6 3 -33 14
-22 12 -27 -30 -92 -46 -69 -53 -89 -35 -100 6 -3 10 -11 10 -17 0 -6 -8 -4
-18 5 -23 21 -47 21 -102 2 -60 -21 -97 -19 -111 6 l-11 21 -14 -21 c-18 -25
-54 -27 -114 -6 -55 20 -79 19 -103 -3 -19 -16 -20 -16 -8 5 16 31 15 35 -29
101 -44 65 -48 86 -23 114 15 17 15 18 0 18 -10 0 -26 9 -37 20 -16 16 -20 33
-20 95 0 65 -3 76 -21 85 -24 13 -38 5 -21 -12 7 -7 12 -42 12 -84 0 -54 4
-77 19 -95 10 -13 20 -42 23 -64 3 -23 20 -61 38 -87 17 -25 35 -61 39 -79 l7
-34 252 -3 252 -2 0 28 c0 16 17 55 40 90 25 38 40 73 40 92 0 18 9 43 20 57
16 20 20 41 20 96 0 49 5 76 15 87 20 22 10 46 -20 54 -13 3 -43 32 -67 64
-31 41 -52 58 -71 60 -15 2 -27 7 -27 11 0 21 -56 61 -107 77 -30 10 -60 26
-66 36 -16 25 -27 23 -27 -7z"/>
<path d="M387 696 c-4 -9 -17 -16 -29 -16 -22 -1 -22 -1 -4 -15 10 -8 16 -20
13 -28 -3 -9 5 -13 28 -13 23 0 31 4 28 13 -3 8 3 20 13 28 18 14 18 14 -3 15
-12 0 -26 7 -31 16 -8 15 -10 15 -15 0z m26 -43 c-5 -14 -24 -13 -35 1 -3 5
-1 14 5 21 14 14 37 -3 30 -22z"/>
<path d="M360 595 c0 -8 5 -15 10 -15 6 0 10 7 10 15 0 8 -4 15 -10 15 -5 0
-10 -7 -10 -15z"/>
<path d="M390 595 c0 -8 4 -15 10 -15 5 0 7 7 4 15 -4 8 -8 15 -10 15 -2 0 -4
-7 -4 -15z"/>
<path d="M420 595 c0 -8 4 -15 10 -15 5 0 7 7 4 15 -4 8 -8 15 -10 15 -2 0 -4
-7 -4 -15z"/>
<path d="M320 585 c0 -8 5 -15 10 -15 6 0 10 7 10 15 0 8 -4 15 -10 15 -5 0
-10 -7 -10 -15z"/>
<path d="M450 591 c0 -6 5 -13 10 -16 6 -3 10 1 10 9 0 9 -4 16 -10 16 -5 0
-10 -4 -10 -9z"/>
<path d="M290 576 c0 -9 5 -16 10 -16 6 0 10 4 10 9 0 6 -4 13 -10 16 -5 3
-10 -1 -10 -9z"/>
<path d="M480 573 c0 -10 6 -14 19 -10 14 3 18 1 14 -9 -6 -17 -3 -17 -46 1
-151 63 -311 -89 -263 -249 l15 -48 -30 6 c-28 5 -29 4 -23 -22 4 -15 11 -29
15 -32 5 -3 41 -5 81 -3 40 2 82 3 94 3 22 1 28 26 11 48 -6 8 -6 12 1 12 6 0
14 -5 17 -10 10 -16 25 -2 18 16 -3 9 0 20 8 25 10 6 10 9 2 9 -7 0 -13 7 -13
15 0 31 135 15 146 -17 3 -11 8 -17 11 -15 2 3 0 14 -6 25 -7 14 -28 23 -68
30 -32 5 -63 7 -70 5 -10 -4 -13 10 -13 52 0 56 1 57 18 42 27 -24 38 -21 16
4 -19 22 -19 22 5 14 16 -5 21 -4 17 4 -4 6 -15 11 -24 11 -13 0 -12 5 8 20
29 23 15 27 -17 5 -20 -14 -22 -14 -26 12 l-4 28 -2 -28 c-1 -27 -1 -27 -26
-11 -28 18 -34 8 -7 -12 16 -12 16 -13 0 -14 -9 0 -20 -5 -24 -11 -4 -8 1 -9
17 -4 24 8 24 8 5 -14 -22 -25 -11 -28 16 -4 17 15 18 14 18 -39 0 -55 0 -55
-31 -56 -66 -2 -109 -14 -120 -34 -6 -11 -8 -22 -6 -25 3 -2 8 4 11 15 10 31
146 48 146 18 0 -8 -6 -17 -12 -19 -10 -4 -10 -6 0 -6 6 -1 12 -7 12 -15 0
-11 -8 -12 -40 -4 -27 7 -53 7 -80 0 -50 -12 -60 1 -60 84 0 114 74 189 186
189 77 0 131 -33 163 -97 24 -50 27 -126 7 -173 -12 -29 -15 -30 -74 -30 -34
0 -57 4 -53 8 5 5 32 7 60 6 28 -2 51 -1 51 2 0 11 -68 20 -102 14 -30 -6 -33
-10 -33 -41 0 -25 4 -34 15 -33 8 1 27 -1 42 -5 14 -4 35 -3 46 3 14 7 28 7
50 -1 36 -14 39 -12 52 31 10 35 3 39 -26 15 -10 -8 -12 -12 -4 -8 8 4 12 3 7
-1 -10 -12 -87 -18 -87 -7 0 4 14 7 31 6 17 -1 28 0 25 3 -3 3 2 19 11 37 34
65 15 165 -44 227 -21 23 -22 27 -7 33 12 5 14 9 5 20 -18 21 -51 27 -51 9z
m-122 -315 c7 -7 12 -15 12 -18 0 -10 -39 -9 -45 1 -4 5 2 6 12 2 10 -3 15 -3
11 2 -14 15 -85 15 -104 -1 -18 -15 -18 -15 1 -6 11 5 28 8 39 6 24 -4 42 -21
21 -21 -8 0 -15 3 -15 7 0 4 -7 7 -15 7 -8 0 -15 -4 -15 -9 0 -12 -50 -5 -62
9 -7 9 -7 13 1 13 6 0 11 -4 11 -10 0 -5 9 -1 20 10 23 23 108 28 128 8z m98
-21 c4 -4 0 -7 -9 -7 -9 0 -18 4 -21 9 -7 10 20 9 30 -2z m44 -13 c0 -21 -17
-17 -23 5 -3 14 -1 18 9 14 8 -3 14 -11 14 -19z"/>
<path d="M259 562 c-13 -18 -19 -22 -36 -22 -4 0 -1 -6 5 -12 9 -9 15 -10 20
-2 4 6 15 15 24 20 11 6 14 14 9 23 -7 10 -11 9 -22 -7z"/>
<path d="M535 541 c-3 -6 3 -15 14 -21 14 -7 22 -7 27 2 4 7 3 8 -4 4 -7 -4
-12 -1 -12 8 0 18 -15 21 -25 7z"/>
<path d="M955 529 c-31 -15 -65 -72 -65 -108 0 -24 10 -43 38 -71 20 -22 47
-53 60 -70 34 -43 82 -42 128 4 26 26 34 30 34 17 0 -10 8 -25 18 -34 15 -14
21 -14 43 -3 21 10 29 11 43 1 11 -8 43 -11 99 -8 45 2 93 4 107 3 195 -7 338
-4 363 8 23 11 31 11 43 1 9 -7 40 -14 70 -15 43 -2 59 1 73 15 16 16 21 17
33 5 7 -7 27 -16 44 -20 24 -4 37 0 59 19 27 22 28 26 16 54 -10 25 -10 35 0
51 11 18 10 24 -5 41 -11 12 -26 21 -34 21 -9 0 -30 5 -48 12 -26 9 -36 9 -49
-2 -10 -9 -36 -13 -71 -11 -32 1 -61 -3 -69 -9 -27 -22 -47 -4 -39 35 5 27 2
41 -11 55 -22 24 -33 25 -57 3 -17 -15 -19 -15 -39 3 -15 14 -24 16 -37 8 -14
-9 -53 -73 -65 -107 -2 -6 -12 -4 -25 4 -16 10 -27 11 -39 3 -12 -8 -25 -8
-45 0 -24 9 -31 7 -50 -11 l-22 -22 -10 21 c-21 41 -42 45 -74 15 -26 -25 -30
-26 -42 -12 -8 10 -30 15 -62 15 -45 0 -48 1 -34 16 35 35 7 84 -47 84 -37 0
-77 -24 -77 -46 0 -21 -9 -17 -40 16 -30 32 -74 39 -115 19z m100 -39 c19 -21
18 -39 -11 -112 -10 -26 -15 -51 -11 -55 17 -16 44 18 77 98 l36 84 39 0 c46
0 58 -28 15 -33 -21 -2 -30 -15 -55 -79 -41 -103 -90 -138 -137 -96 -22 20
-23 52 -3 100 20 48 19 73 -3 73 -39 0 -57 -50 -24 -69 15 -9 15 -11 2 -25
-25 -25 -60 5 -60 50 0 70 90 113 135 64z m679 11 c3 -4 -10 -45 -29 -90 -40
-95 -39 -91 -20 -91 8 0 15 -6 15 -14 0 -11 -23 -14 -114 -14 -133 -1 -140 5
-104 76 33 65 53 51 33 -22 -16 -59 30 -12 58 58 2 5 11 7 20 3 16 -6 16 -9 2
-43 -19 -45 -19 -42 8 -46 19 -3 26 8 60 95 35 89 55 114 71 88z m90 1 c2 -4
-4 -27 -14 -49 -18 -42 -18 -42 2 -45 42 -6 49 -65 12 -102 -16 -17 -114 -21
-114 -5 0 5 19 54 41 109 37 90 58 116 73 92z m-614 -66 c0 -3 -4 -8 -10 -11
-5 -3 -10 -1 -10 4 0 6 5 11 10 11 6 0 10 -2 10 -4z m210 -24 c0 -9 7 -26 15
-36 18 -24 19 -60 2 -74 -15 -13 -175 -14 -182 -2 -3 5 1 23 10 39 19 37 19
41 0 41 -9 0 -24 -19 -35 -44 -21 -50 -33 -61 -47 -43 -7 8 -3 29 13 64 l23
52 48 -2 c44 -2 48 -4 47 -27 -1 -14 -4 -32 -8 -41 -5 -12 -1 -18 16 -21 39
-7 82 6 86 25 4 18 -13 24 -23 7 -8 -13 -25 -3 -25 13 0 7 9 27 20 45 20 33
40 35 40 4z m689 -2 c21 0 31 -5 31 -15 0 -8 -7 -15 -15 -15 -14 0 -35 -29
-35 -49 0 -5 11 -11 25 -13 42 -5 28 -23 -17 -23 -37 0 -43 3 -46 23 -2 13 2
30 9 38 6 8 9 17 5 21 -3 4 -14 -3 -22 -16 -24 -33 -38 -12 -20 30 19 46 28
53 42 35 6 -9 25 -16 43 -16z m-109 -13 c-1 -7 -7 -23 -15 -37 -19 -34 -18
-40 6 -40 12 0 19 -5 17 -12 -6 -18 -129 -22 -140 -5 -14 22 -8 60 13 83 17
18 32 23 70 22 30 0 49 -4 49 -11z"/>
<path d="M1772 355 c-7 -16 -8 -26 -1 -31 14 -8 39 15 39 37 0 27 -25 23 -38
-6z"/>
<path d="M1912 368 c-16 -16 -15 -48 1 -48 11 0 37 39 37 55 0 10 -26 5 -38
-7z"/>
<path d="M2475 521 c-17 -10 -43 -32 -57 -50 -20 -23 -35 -31 -60 -31 -53 -1
-114 -34 -144 -79 -22 -34 -26 -48 -21 -83 11 -79 95 -124 155 -83 12 9 36 37
53 62 32 45 32 46 48 25 9 -12 30 -24 48 -28 28 -5 31 -9 23 -25 -15 -28 -12
-54 9 -73 27 -25 57 -6 81 50 13 30 25 44 38 44 17 0 19 -6 15 -44 -5 -38 -2
-46 17 -56 19 -10 25 -8 46 11 13 12 28 37 34 55 9 27 17 34 37 34 15 0 38 13
59 34 28 28 34 41 34 78 0 31 -6 50 -18 61 -23 21 -90 22 -119 2 -18 -13 -22
-13 -33 0 -14 17 -95 21 -105 5 -15 -25 -26 -8 -20 31 5 31 3 45 -11 60 -22
24 -70 25 -109 0z m100 -21 c3 -5 -3 -27 -14 -50 -19 -40 -19 -40 1 -40 26 0
20 -34 -7 -38 -19 -3 -45 -28 -45 -42 0 -4 10 -6 23 -6 13 1 22 -5 22 -14 0
-11 -12 -15 -45 -15 -39 0 -45 3 -44 20 1 11 5 28 9 38 6 13 2 17 -16 17 -19
0 -31 -12 -54 -56 -52 -98 -105 -125 -159 -83 -31 24 -36 81 -10 118 21 30 89
61 135 61 30 0 40 6 60 35 13 19 38 41 54 50 34 17 81 20 90 5z m143 -128 c2
-19 -4 -44 -13 -58 -13 -21 -23 -25 -52 -22 -34 3 -36 1 -57 -50 -26 -61 -42
-80 -56 -66 -6 6 7 49 36 121 l46 112 47 -2 c44 -2 46 -3 49 -35z m140 26 c18
-16 14 -52 -9 -83 -18 -22 -28 -26 -55 -23 -32 4 -34 2 -55 -54 -23 -63 -35
-76 -51 -60 -7 7 3 43 32 114 23 56 44 106 46 110 6 10 78 7 92 -4z"/>
<path d="M2499 457 c-8 -6 -21 -20 -28 -29 -12 -16 -11 -18 8 -18 14 0 25 9
32 26 11 32 8 38 -12 21z"/>
<path d="M2314 360 c-24 -9 -54 -47 -54 -67 0 -6 7 -19 16 -27 22 -22 45 -7
83 54 l31 50 -28 -1 c-15 0 -37 -4 -48 -9z m4 -50 c-13 -21 -28 -27 -28 -10 0
5 8 14 18 19 23 14 24 14 10 -9z"/>
<path d="M2642 355 c-7 -16 -8 -26 -1 -31 14 -8 39 15 39 37 0 27 -25 23 -38
-6z"/>
<path d="M2790 361 c-14 -27 -13 -41 5 -41 14 0 35 29 35 49 0 18 -29 12 -40
-8z"/>
<path d="M200 510 c0 -5 7 -10 15 -10 8 0 15 5 15 10 0 6 -7 10 -15 10 -8 0
-15 -4 -15 -10z"/>
<path d="M185 490 c-8 -13 15 -24 27 -12 6 6 4 11 -6 15 -8 3 -18 2 -21 -3z"/>
<path d="M578 495 c-9 -9 25 -75 39 -75 7 0 13 5 13 10 0 6 -7 10 -16 10 -14
0 -14 3 -4 15 10 12 10 15 -3 15 -10 0 -14 6 -11 15 6 14 -7 21 -18 10z"/>
<path d="M175 460 c-3 -5 1 -10 10 -10 9 0 13 5 10 10 -3 6 -8 10 -10 10 -2 0
-7 -4 -10 -10z"/>
<path d="M170 430 c12 -7 12 -10 1 -10 -7 0 -11 -6 -7 -15 3 -8 0 -15 -7 -15
-8 0 -8 -3 2 -9 11 -7 11 -9 0 -14 -10 -4 -9 -6 4 -6 10 -1 17 6 17 17 0 9 3
27 6 40 5 17 2 22 -12 22 -16 0 -17 -2 -4 -10z"/>
<path d="M610 386 c0 -16 6 -26 15 -26 8 0 15 5 15 10 0 6 -5 10 -11 10 -5 0
-8 4 -4 9 3 5 1 12 -5 16 -6 4 -10 -5 -10 -19z"/>
<path d="M367 170 c-18 -31 -51 -43 -41 -15 4 9 0 15 -10 15 -21 0 -20 -26 2
-39 10 -6 12 -11 4 -11 -7 0 -30 10 -51 22 -39 22 -75 19 -65 -5 3 -8 17 -14
32 -14 15 -1 43 -6 62 -11 l35 -11 -47 2 c-26 0 -51 -2 -55 -7 -11 -11 19 -26
42 -20 46 12 74 27 69 35 -3 5 1 6 9 3 8 -3 18 0 23 7 4 7 3 10 -4 5 -7 -4 -9
1 -7 15 7 33 13 34 21 5 5 -20 1 -33 -15 -50 -22 -23 -30 -49 -9 -28 15 15 51
15 66 0 21 -21 13 5 -9 28 -16 17 -20 30 -15 50 6 21 9 25 16 14 5 -9 4 -20
-3 -30 -6 -8 -8 -12 -3 -8 4 3 16 -2 26 -12 34 -34 127 -47 117 -17 -2 7 -25
11 -53 10 -49 -2 -49 -2 -14 8 19 6 49 12 65 12 19 1 30 7 30 17 0 23 -32 24
-69 1 -18 -12 -40 -21 -47 -21 -10 1 -9 4 4 11 19 11 24 43 5 36 -7 -2 -12
-10 -10 -16 5 -23 -28 -10 -45 19 -9 17 -22 30 -28 30 -6 0 -19 -13 -28 -30z"/>
</g>
</svg>
